Coordinates
version=1
nRows=22
nColumns=24
inDegrees=yes

Units are S.I. units (second, meters, Newtons, ...)
Angles are in degrees.

endheader
time	pelvis_tilt	pelvis_list	pelvis_rotation	pelvis_tx	pelvis_ty	pelvis_tz	hip_flexion_r	hip_adduction_r	hip_rotation_r	knee_angle_r	ankle_angle_r	subtalar_angle_r	mtp_angle_r	hip_flexion_l	hip_adduction_l	hip_rotation_l	knee_angle_l	ankle_angle_l	subtalar_angle_l	mtp_angle_l	lumbar_extension	lumbar_bending	lumbar_rotation
      6.41000000	      1.54284291	     -1.60336046	     -0.02923294	     -1.75811808	      0.66776518	      0.12124579	    -14.40825145	      6.82149055	      3.17526035	    -13.02019884	     18.68672777	     -5.38883625	      0.00000000	     18.14683412	      1.37037482	      4.95878017	     -6.20211462	      1.07579329	    -12.35549179	      0.00000000	    -10.88365162	      1.92746157	     10.68301496
      6.42000000	      1.43225620	     -1.13261897	     -0.17927971	     -1.74692952	      0.66772167	      0.12082922	    -14.34534087	      6.25918595	      3.30938283	    -14.78400132	     17.48705693	     -5.80538681	      0.00000000	     17.84765933	      1.91918194	      4.38763693	     -7.04663371	     -0.32287868	    -13.31735110	      0.00000000	    -10.45765370	      1.29647032	     10.64549212
      6.43000000	      1.46664508	     -0.54074305	     -0.21075924	     -1.73571371	      0.66806428	      0.12035767	    -14.22364427	      5.57990005	      2.96031433	    -16.87014015	     16.12714116	     -5.82130526	      0.00000000	     17.43741403	      2.57756886	      3.81324497	     -8.08668811	     -1.19468784	    -13.48843633	      0.00000000	    -10.19816490	      0.51907445	     10.46497118
      6.44000000	      1.49219732	      0.13443992	     -0.25754864	     -1.72449759	      0.66871374	      0.11994134	    -13.87643321	      4.81721660	      2.58515402	    -19.26953244	     14.33212736	     -6.01557253	      0.00000000	     16.96392362	      3.29310750	      3.47938839	     -9.04820790	     -1.85148932	    -13.66010776	      0.00000000	     -9.91672812	     -0.35718680	     10.18661644
      6.45000000	      1.52701417	      0.75900921	     -0.22351783	     -1.71341537	      0.66964795	      0.11949393	    -13.31125582	      4.13193227	      2.15711665	    -21.92661544	     11.72991618	     -6.61417787	      0.00000000	     16.49645477	      3.97194581	      3.36213139	    -10.06846103	     -1.97905147	    -13.79704646	      0.00000000	     -9.67454326	     -1.16889035	      9.88882361
      6.46000000	      1.57780814	      1.34543013	     -0.19990501	     -1.70244989	      0.67084981	      0.11905022	    -12.47504802	      3.44496844	      1.62878089	    -24.94268834	      8.59967957	     -7.02579060	      0.00000000	     15.93479617	      4.60068518	      3.29390864	    -10.96973523	     -1.56808910	    -13.59435389	      0.00000000	     -9.47765330	     -1.94216564	      9.55230824
      6.47000000	      1.62303756	      1.87450441	     -0.15388679	     -1.69170938	      0.67216175	      0.11852667	    -11.31129672	      2.76016199	      0.96826301	    -28.33940091	      5.08125428	     -7.35890707	      0.00000000	     15.32804902	      5.19330667	      3.29339591	    -11.78342546	     -0.82308083	    -13.38965645	      0.00000000	     -9.33225141	     -2.63539381	      9.24409110
      6.48000000	      1.61949627	      2.28640605	     -0.20740596	     -1.68116712	      0.67349067	      0.11802886	     -9.81940074	      2.14355799	      0.50285062	    -32.00683963	      1.03072928	     -7.70115969	      0.00000000	     14.62773154	      5.66275811	      3.36895355	    -12.33126682	      0.16898621	    -13.11190678	      0.00000000	     -9.15866261	     -3.18958309	      9.02723843
      6.49000000	      1.59195463	      2.65071565	     -0.30091741	     -1.67091240	      0.67470172	      0.11748720	     -8.01783055	      1.50827853	      0.03348233	    -35.94720708	     -3.03817260	     -7.95371092	      0.00000000	     13.86387530	      6.10574638	      3.47829279	    -12.68457355	      1.23276500	    -12.93874162	      0.00000000	     -9.02866040	     -3.67926009	      8.88529669
      6.50000000	      1.53250191	      3.02265866	     -0.43918783	     -1.66093811	      0.67570191	      0.11691521	     -5.95161224	      0.80907534	     -0.40450324	    -40.06375281	     -6.78754523	     -8.18843937	      0.00000000	     13.05402584	      6.57326965	      3.55407980	    -12.83784424	      2.25221749	    -12.91917884	      0.00000000	     -8.92406973	     -4.16357921	      8.75626218
      6.51000000	      1.41885569	      3.32230220	     -0.64481278	     -1.65121566	      0.67648404	      0.11639953	     -3.69356763	      0.20341840	     -0.63214585	    -44.15540715	    -10.12431695	     -8.73012095	      0.00000000	     12.21224653	      6.95678640	      3.61024089	    -12.77422980	      3.26697727	    -12.77738507	      0.00000000	     -8.80084763	     -4.55608556	      8.74276286
      6.52000000	      1.30566438	      3.66184349	     -0.83745350	     -1.64171724	      0.67705879	      0.11587668	     -1.35500709	     -0.42222110	     -0.81587800	    -48.13647002	    -12.59977631	     -9.63964510	      0.00000000	     11.34716727	      7.37825218	      3.52394140	    -12.60400877	      4.22390550	    -12.61002389	      0.00000000	     -8.72779134	     -4.97787497	      8.63572449
      6.53000000	      1.20258048	      3.97882108	     -0.99449632	     -1.63239108	      0.67750144	      0.11536869	      0.97814958	     -0.95898510	     -0.92148095	    -51.84419292	    -14.19724018	    -11.12419187	      0.00000000	     10.45611712	      7.76477567	      3.35473849	    -12.36234064	      5.17743785	    -12.28126802	      0.00000000	     -8.70045069	     -5.35759960	      8.46514323
      6.54000000	      1.13029898	      4.24411793	     -1.08226313	     -1.62319351	      0.67789770	      0.11487257	      3.23139266	     -1.36377735	     -0.98704870	    -55.16354664	    -14.88018560	    -13.22427262	      0.00000000	      9.53634099	      8.08359105	      3.12142064	    -12.10145970	      6.13058112	    -11.75631643	      0.00000000	     -8.73412721	     -5.66061849	      8.19207951
      6.55000000	      1.10251829	      4.43946397	     -1.07891948	     -1.61409222	      0.67833131	      0.11436327	      5.36272412	     -1.62931859	     -1.05141192	    -58.01769232	    -14.82083983	    -15.73471091	      0.00000000	      8.58459294	      8.32331351	      2.89456946	    -11.86232148	      7.05725798	    -11.05449887	      0.00000000	     -8.83933244	     -5.86800820	      7.81124613
      6.56000000	      1.11211262	      4.53768067	     -0.98727035	     -1.60506437	      0.67883272	      0.11384712	      7.36706479	     -1.74114026	     -1.12391248	    -60.36708199	    -14.12675501	    -18.41685984	      0.00000000	      7.60942143	      8.46135058	      2.75386169	    -11.65908299	      7.98475045	    -10.30968629	      0.00000000	     -8.99971891	     -5.94957537	      7.33551747
      6.57000000	      1.14437398	      4.52845053	     -0.81229896	     -1.59609921	      0.67939795	      0.11331929	      9.26200410	     -1.70784430	     -1.21250484	    -62.21060989	    -12.92279977	    -20.95146346	      0.00000000	      6.62313449	      8.49532812	      2.77252209	    -11.48883398	      8.86254109	     -9.66047166	      0.00000000	     -9.19290899	     -5.89738666	      6.79376147
      6.58000000	      1.24305324	      4.44059002	     -0.60471157	     -1.58718429	      0.68003780	      0.11277236	     11.01384909	     -1.58398866	     -1.28502184	    -63.57906709	    -11.23517229	    -22.92272520	      0.00000000	      5.55163411	      8.47375506	      3.08737398	    -11.30036090	      9.60686224	     -9.44453299	      0.00000000	     -9.46410831	     -5.74056059	      6.25895292
      6.59000000	      1.25119930	      4.23106596	     -0.28634170	     -1.57830775	      0.68062654	      0.11222290	     12.75941625	     -1.32206795	     -1.40916724	    -64.43581917	     -9.57294922	    -24.59869356	      0.00000000	      4.59755793	      8.31665315	      3.45097119	    -11.14195950	     10.28961073	     -9.22231139	      0.00000000	     -9.62606622	     -5.45880044	      5.64451423
      6.60000000	      1.25556168	      3.95499140	      0.06139760	     -1.56948240	      0.68116406	      0.11164700	     14.42637826	     -1.00509986	     -1.52736291	    -64.84283211	     -7.92084283	    -25.77693051	      0.00000000	      3.67955659	      8.09257949	      3.88192514	    -11.03860359	     10.93281502	     -9.08678661	      0.00000000	     -9.77502481	     -5.08278723	      5.06915314
      6.61000000	      1.20209510	      3.66015090	      0.48115778	     -1.56070773	      0.68158198	      0.11104859	     16.07103451	     -0.71455936	     -1.70221361	    -64.84590811	     -5.87079477	    -25.94796093	      0.00000000	      2.83829363	      7.83592770	      4.31050621	    -10.93965368	     11.50587415	     -8.92598927	      0.00000000	     -9.86995335	     -4.70890305	      4.45127498
      6.62000000	      1.18482748	      3.34148318	      0.90383731	     -1.55198232	      0.68192098	      0.11045345	     17.57197002	     -0.41579486	     -1.84473293	    -64.41507099	     -4.03314327	    -25.83258265	      0.00000000	      1.96684303	      7.54561823	      4.78240540	    -10.84638272	     12.07967972	     -8.85468097	      0.00000000	    -10.00676187	     -4.30688326	      3.87737196
